%FSLAX45Y45*%
G04 Gerber Fmt 4.5, Leading zero omitted, Abs format (unit mm)*
G04 Created by KiCad (PCBNEW (6.0.0)) date 2022-08-18 21:34:16*
%MOMM*%
%LPD*%
G01*
G04 APERTURE LIST*
%TA.AperFunction,Profile*%
%ADD10C,0.100000*%
%TD*%
%ADD11C,0.200000*%
%ADD12C,0.320000*%
G04 APERTURE END LIST*
D10*
X17805400Y-14732000D02*
X16357600Y-14732000D01*
X25019000Y-6959600D02*
G75*
G03*
X24663400Y-6604000I-355600J0D01*
G01*
X11938000Y-14376400D02*
G75*
G03*
X12293600Y-14732000I355600J0D01*
G01*
X24665953Y-14732000D02*
G75*
G03*
X25021553Y-14376400I0J355600D01*
G01*
X25019000Y-8255000D02*
X25021553Y-14376400D01*
X16357600Y-14732000D02*
X12293600Y-14732000D01*
X24665953Y-14732000D02*
X20294600Y-14732000D01*
X25019000Y-6959600D02*
X25019000Y-8255000D01*
X12291047Y-6604000D02*
X24663400Y-6604000D01*
X20294600Y-14732000D02*
X17805400Y-14732000D01*
X11938000Y-14376400D02*
X11935447Y-6959600D01*
X12291047Y-6604000D02*
G75*
G03*
X11935447Y-6959600I0J-355600D01*
G01*
D11*
D12*
X12133600Y-6799600D02*
X12453600Y-7119600D01*
X12453600Y-6799600D02*
X12133600Y-7119600D01*
X12133600Y-14216400D02*
X12453600Y-14536400D01*
X12453600Y-14216400D02*
X12133600Y-14536400D01*
X24503400Y-6799600D02*
X24823400Y-7119600D01*
X24823400Y-6799600D02*
X24503400Y-7119600D01*
X24503400Y-14216400D02*
X24823400Y-14536400D01*
X24823400Y-14216400D02*
X24503400Y-14536400D01*
D11*
X12188066Y-15047476D02*
X12188066Y-14847476D01*
X12235685Y-14847476D01*
X12264257Y-14857000D01*
X12283304Y-14876048D01*
X12292828Y-14895095D01*
X12302352Y-14933190D01*
X12302352Y-14961762D01*
X12292828Y-14999857D01*
X12283304Y-15018905D01*
X12264257Y-15037952D01*
X12235685Y-15047476D01*
X12188066Y-15047476D01*
X12388066Y-15047476D02*
X12388066Y-14914143D01*
X12388066Y-14952238D02*
X12397590Y-14933190D01*
X12407114Y-14923667D01*
X12426161Y-14914143D01*
X12445209Y-14914143D01*
X12511876Y-15047476D02*
X12511876Y-14914143D01*
X12511876Y-14847476D02*
X12502352Y-14857000D01*
X12511876Y-14866524D01*
X12521399Y-14857000D01*
X12511876Y-14847476D01*
X12511876Y-14866524D01*
X12635685Y-15047476D02*
X12616638Y-15037952D01*
X12607114Y-15018905D01*
X12607114Y-14847476D01*
X12740447Y-15047476D02*
X12721399Y-15037952D01*
X12711876Y-15018905D01*
X12711876Y-14847476D01*
X12969019Y-15047476D02*
X12969019Y-14847476D01*
X13035685Y-14990333D01*
X13102352Y-14847476D01*
X13102352Y-15047476D01*
X13283304Y-15047476D02*
X13283304Y-14942714D01*
X13273780Y-14923667D01*
X13254733Y-14914143D01*
X13216638Y-14914143D01*
X13197590Y-14923667D01*
X13283304Y-15037952D02*
X13264257Y-15047476D01*
X13216638Y-15047476D01*
X13197590Y-15037952D01*
X13188066Y-15018905D01*
X13188066Y-14999857D01*
X13197590Y-14980809D01*
X13216638Y-14971286D01*
X13264257Y-14971286D01*
X13283304Y-14961762D01*
X13378542Y-14914143D02*
X13378542Y-15114143D01*
X13378542Y-14923667D02*
X13397590Y-14914143D01*
X13435685Y-14914143D01*
X13454733Y-14923667D01*
X13464257Y-14933190D01*
X13473780Y-14952238D01*
X13473780Y-15009381D01*
X13464257Y-15028428D01*
X13454733Y-15037952D01*
X13435685Y-15047476D01*
X13397590Y-15047476D01*
X13378542Y-15037952D01*
X13559495Y-15028428D02*
X13569019Y-15037952D01*
X13559495Y-15047476D01*
X13549971Y-15037952D01*
X13559495Y-15028428D01*
X13559495Y-15047476D01*
X13559495Y-14923667D02*
X13569019Y-14933190D01*
X13559495Y-14942714D01*
X13549971Y-14933190D01*
X13559495Y-14923667D01*
X13559495Y-14942714D01*
X11730447Y-15277000D02*
X11930447Y-15477000D01*
X11930447Y-15277000D02*
X11730447Y-15477000D01*
X12169019Y-15267476D02*
X12292828Y-15267476D01*
X12226161Y-15343667D01*
X12254733Y-15343667D01*
X12273780Y-15353190D01*
X12283304Y-15362714D01*
X12292828Y-15381762D01*
X12292828Y-15429381D01*
X12283304Y-15448428D01*
X12273780Y-15457952D01*
X12254733Y-15467476D01*
X12197590Y-15467476D01*
X12178542Y-15457952D01*
X12169019Y-15448428D01*
X12378542Y-15448428D02*
X12388066Y-15457952D01*
X12378542Y-15467476D01*
X12369019Y-15457952D01*
X12378542Y-15448428D01*
X12378542Y-15467476D01*
X12464257Y-15286524D02*
X12473780Y-15277000D01*
X12492828Y-15267476D01*
X12540447Y-15267476D01*
X12559495Y-15277000D01*
X12569019Y-15286524D01*
X12578542Y-15305571D01*
X12578542Y-15324619D01*
X12569019Y-15353190D01*
X12454733Y-15467476D01*
X12578542Y-15467476D01*
X12702352Y-15267476D02*
X12721399Y-15267476D01*
X12740447Y-15277000D01*
X12749971Y-15286524D01*
X12759495Y-15305571D01*
X12769019Y-15343667D01*
X12769019Y-15391286D01*
X12759495Y-15429381D01*
X12749971Y-15448428D01*
X12740447Y-15457952D01*
X12721399Y-15467476D01*
X12702352Y-15467476D01*
X12683304Y-15457952D01*
X12673780Y-15448428D01*
X12664257Y-15429381D01*
X12654733Y-15391286D01*
X12654733Y-15343667D01*
X12664257Y-15305571D01*
X12673780Y-15286524D01*
X12683304Y-15277000D01*
X12702352Y-15267476D01*
X12892828Y-15267476D02*
X12911876Y-15267476D01*
X12930923Y-15277000D01*
X12940447Y-15286524D01*
X12949971Y-15305571D01*
X12959495Y-15343667D01*
X12959495Y-15391286D01*
X12949971Y-15429381D01*
X12940447Y-15448428D01*
X12930923Y-15457952D01*
X12911876Y-15467476D01*
X12892828Y-15467476D01*
X12873780Y-15457952D01*
X12864257Y-15448428D01*
X12854733Y-15429381D01*
X12845209Y-15391286D01*
X12845209Y-15343667D01*
X12854733Y-15305571D01*
X12864257Y-15286524D01*
X12873780Y-15277000D01*
X12892828Y-15267476D01*
X13045209Y-15467476D02*
X13045209Y-15334143D01*
X13045209Y-15353190D02*
X13054733Y-15343667D01*
X13073780Y-15334143D01*
X13102352Y-15334143D01*
X13121399Y-15343667D01*
X13130923Y-15362714D01*
X13130923Y-15467476D01*
X13130923Y-15362714D02*
X13140447Y-15343667D01*
X13159495Y-15334143D01*
X13188066Y-15334143D01*
X13207114Y-15343667D01*
X13216638Y-15362714D01*
X13216638Y-15467476D01*
X13311876Y-15467476D02*
X13311876Y-15334143D01*
X13311876Y-15353190D02*
X13321399Y-15343667D01*
X13340447Y-15334143D01*
X13369019Y-15334143D01*
X13388066Y-15343667D01*
X13397590Y-15362714D01*
X13397590Y-15467476D01*
X13397590Y-15362714D02*
X13407114Y-15343667D01*
X13426161Y-15334143D01*
X13454733Y-15334143D01*
X13473780Y-15343667D01*
X13483304Y-15362714D01*
X13483304Y-15467476D01*
X13873780Y-15257952D02*
X13702352Y-15515095D01*
X14130923Y-15267476D02*
X14149971Y-15267476D01*
X14169019Y-15277000D01*
X14178542Y-15286524D01*
X14188066Y-15305571D01*
X14197590Y-15343667D01*
X14197590Y-15391286D01*
X14188066Y-15429381D01*
X14178542Y-15448428D01*
X14169019Y-15457952D01*
X14149971Y-15467476D01*
X14130923Y-15467476D01*
X14111876Y-15457952D01*
X14102352Y-15448428D01*
X14092828Y-15429381D01*
X14083304Y-15391286D01*
X14083304Y-15343667D01*
X14092828Y-15305571D01*
X14102352Y-15286524D01*
X14111876Y-15277000D01*
X14130923Y-15267476D01*
X14283304Y-15448428D02*
X14292828Y-15457952D01*
X14283304Y-15467476D01*
X14273780Y-15457952D01*
X14283304Y-15448428D01*
X14283304Y-15467476D01*
X14483304Y-15467476D02*
X14369019Y-15467476D01*
X14426161Y-15467476D02*
X14426161Y-15267476D01*
X14407114Y-15296048D01*
X14388066Y-15315095D01*
X14369019Y-15324619D01*
X14559495Y-15286524D02*
X14569019Y-15277000D01*
X14588066Y-15267476D01*
X14635685Y-15267476D01*
X14654733Y-15277000D01*
X14664257Y-15286524D01*
X14673780Y-15305571D01*
X14673780Y-15324619D01*
X14664257Y-15353190D01*
X14549971Y-15467476D01*
X14673780Y-15467476D01*
X14845209Y-15267476D02*
X14807114Y-15267476D01*
X14788066Y-15277000D01*
X14778542Y-15286524D01*
X14759495Y-15315095D01*
X14749971Y-15353190D01*
X14749971Y-15429381D01*
X14759495Y-15448428D01*
X14769019Y-15457952D01*
X14788066Y-15467476D01*
X14826161Y-15467476D01*
X14845209Y-15457952D01*
X14854733Y-15448428D01*
X14864257Y-15429381D01*
X14864257Y-15381762D01*
X14854733Y-15362714D01*
X14845209Y-15353190D01*
X14826161Y-15343667D01*
X14788066Y-15343667D01*
X14769019Y-15353190D01*
X14759495Y-15362714D01*
X14749971Y-15381762D01*
X14988066Y-15267476D02*
X15007114Y-15267476D01*
X15026161Y-15277000D01*
X15035685Y-15286524D01*
X15045209Y-15305571D01*
X15054733Y-15343667D01*
X15054733Y-15391286D01*
X15045209Y-15429381D01*
X15035685Y-15448428D01*
X15026161Y-15457952D01*
X15007114Y-15467476D01*
X14988066Y-15467476D01*
X14969019Y-15457952D01*
X14959495Y-15448428D01*
X14949971Y-15429381D01*
X14940447Y-15391286D01*
X14940447Y-15343667D01*
X14949971Y-15305571D01*
X14959495Y-15286524D01*
X14969019Y-15277000D01*
X14988066Y-15267476D01*
X15130923Y-15267476D02*
X15130923Y-15305571D01*
X15207114Y-15267476D02*
X15207114Y-15305571D01*
X15502352Y-15543667D02*
X15492828Y-15534143D01*
X15473780Y-15505571D01*
X15464257Y-15486524D01*
X15454733Y-15457952D01*
X15445209Y-15410333D01*
X15445209Y-15372238D01*
X15454733Y-15324619D01*
X15464257Y-15296048D01*
X15473780Y-15277000D01*
X15492828Y-15248428D01*
X15502352Y-15238905D01*
X15664257Y-15334143D02*
X15664257Y-15467476D01*
X15616638Y-15257952D02*
X15569019Y-15400809D01*
X15692828Y-15400809D01*
X15921399Y-15467476D02*
X15921399Y-15267476D01*
X16007114Y-15467476D02*
X16007114Y-15362714D01*
X15997590Y-15343667D01*
X15978542Y-15334143D01*
X15949971Y-15334143D01*
X15930923Y-15343667D01*
X15921399Y-15353190D01*
X16130923Y-15467476D02*
X16111876Y-15457952D01*
X16102352Y-15448428D01*
X16092828Y-15429381D01*
X16092828Y-15372238D01*
X16102352Y-15353190D01*
X16111876Y-15343667D01*
X16130923Y-15334143D01*
X16159495Y-15334143D01*
X16178542Y-15343667D01*
X16188066Y-15353190D01*
X16197590Y-15372238D01*
X16197590Y-15429381D01*
X16188066Y-15448428D01*
X16178542Y-15457952D01*
X16159495Y-15467476D01*
X16130923Y-15467476D01*
X16311876Y-15467476D02*
X16292828Y-15457952D01*
X16283304Y-15438905D01*
X16283304Y-15267476D01*
X16464257Y-15457952D02*
X16445209Y-15467476D01*
X16407114Y-15467476D01*
X16388066Y-15457952D01*
X16378542Y-15438905D01*
X16378542Y-15362714D01*
X16388066Y-15343667D01*
X16407114Y-15334143D01*
X16445209Y-15334143D01*
X16464257Y-15343667D01*
X16473780Y-15362714D01*
X16473780Y-15381762D01*
X16378542Y-15400809D01*
X16549971Y-15457952D02*
X16569019Y-15467476D01*
X16607114Y-15467476D01*
X16626161Y-15457952D01*
X16635685Y-15438905D01*
X16635685Y-15429381D01*
X16626161Y-15410333D01*
X16607114Y-15400809D01*
X16578542Y-15400809D01*
X16559495Y-15391286D01*
X16549971Y-15372238D01*
X16549971Y-15362714D01*
X16559495Y-15343667D01*
X16578542Y-15334143D01*
X16607114Y-15334143D01*
X16626161Y-15343667D01*
X16702352Y-15543667D02*
X16711876Y-15534143D01*
X16730923Y-15505571D01*
X16740447Y-15486524D01*
X16749971Y-15457952D01*
X16759495Y-15410333D01*
X16759495Y-15372238D01*
X16749971Y-15324619D01*
X16740447Y-15296048D01*
X16730923Y-15277000D01*
X16711876Y-15248428D01*
X16702352Y-15238905D01*
X17064257Y-15543667D02*
X17054733Y-15534143D01*
X17035685Y-15505571D01*
X17026161Y-15486524D01*
X17016638Y-15457952D01*
X17007114Y-15410333D01*
X17007114Y-15372238D01*
X17016638Y-15324619D01*
X17026161Y-15296048D01*
X17035685Y-15277000D01*
X17054733Y-15248428D01*
X17064257Y-15238905D01*
X17140447Y-15334143D02*
X17140447Y-15467476D01*
X17140447Y-15353190D02*
X17149971Y-15343667D01*
X17169019Y-15334143D01*
X17197590Y-15334143D01*
X17216638Y-15343667D01*
X17226161Y-15362714D01*
X17226161Y-15467476D01*
X17349971Y-15467476D02*
X17330923Y-15457952D01*
X17321400Y-15448428D01*
X17311876Y-15429381D01*
X17311876Y-15372238D01*
X17321400Y-15353190D01*
X17330923Y-15343667D01*
X17349971Y-15334143D01*
X17378542Y-15334143D01*
X17397590Y-15343667D01*
X17407114Y-15353190D01*
X17416638Y-15372238D01*
X17416638Y-15429381D01*
X17407114Y-15448428D01*
X17397590Y-15457952D01*
X17378542Y-15467476D01*
X17349971Y-15467476D01*
X17473781Y-15334143D02*
X17549971Y-15334143D01*
X17502352Y-15267476D02*
X17502352Y-15438905D01*
X17511876Y-15457952D01*
X17530923Y-15467476D01*
X17549971Y-15467476D01*
X17769019Y-15334143D02*
X17769019Y-15534143D01*
X17769019Y-15343667D02*
X17788066Y-15334143D01*
X17826161Y-15334143D01*
X17845209Y-15343667D01*
X17854733Y-15353190D01*
X17864257Y-15372238D01*
X17864257Y-15429381D01*
X17854733Y-15448428D01*
X17845209Y-15457952D01*
X17826161Y-15467476D01*
X17788066Y-15467476D01*
X17769019Y-15457952D01*
X17978542Y-15467476D02*
X17959495Y-15457952D01*
X17949971Y-15438905D01*
X17949971Y-15267476D01*
X18140447Y-15467476D02*
X18140447Y-15362714D01*
X18130923Y-15343667D01*
X18111876Y-15334143D01*
X18073781Y-15334143D01*
X18054733Y-15343667D01*
X18140447Y-15457952D02*
X18121400Y-15467476D01*
X18073781Y-15467476D01*
X18054733Y-15457952D01*
X18045209Y-15438905D01*
X18045209Y-15419857D01*
X18054733Y-15400809D01*
X18073781Y-15391286D01*
X18121400Y-15391286D01*
X18140447Y-15381762D01*
X18207114Y-15334143D02*
X18283304Y-15334143D01*
X18235685Y-15267476D02*
X18235685Y-15438905D01*
X18245209Y-15457952D01*
X18264257Y-15467476D01*
X18283304Y-15467476D01*
X18426161Y-15457952D02*
X18407114Y-15467476D01*
X18369019Y-15467476D01*
X18349971Y-15457952D01*
X18340447Y-15438905D01*
X18340447Y-15362714D01*
X18349971Y-15343667D01*
X18369019Y-15334143D01*
X18407114Y-15334143D01*
X18426161Y-15343667D01*
X18435685Y-15362714D01*
X18435685Y-15381762D01*
X18340447Y-15400809D01*
X18607114Y-15467476D02*
X18607114Y-15267476D01*
X18607114Y-15457952D02*
X18588066Y-15467476D01*
X18549971Y-15467476D01*
X18530923Y-15457952D01*
X18521400Y-15448428D01*
X18511876Y-15429381D01*
X18511876Y-15372238D01*
X18521400Y-15353190D01*
X18530923Y-15343667D01*
X18549971Y-15334143D01*
X18588066Y-15334143D01*
X18607114Y-15343667D01*
X18683304Y-15543667D02*
X18692828Y-15534143D01*
X18711876Y-15505571D01*
X18721400Y-15486524D01*
X18730923Y-15457952D01*
X18740447Y-15410333D01*
X18740447Y-15372238D01*
X18730923Y-15324619D01*
X18721400Y-15296048D01*
X18711876Y-15277000D01*
X18692828Y-15248428D01*
X18683304Y-15238905D01*
M02*
