M48
; DRILL file {KiCad (6.0.0)} date Thu Aug 18 21:34:00 2022
; FORMAT={-:-/ absolute / metric / decimal}
; #@! TF.CreationDate,2022-08-18T21:34:00-04:00
; #@! TF.GenerationSoftware,Kicad,Pcbnew,(6.0.0)
; #@! TF.FileFunction,Plated,1,2,PTH
FMAT,2
METRIC
; #@! TA.AperFunction,Plated,PTH,ViaDrill
T1C0.400
; #@! TA.AperFunction,Plated,PTH,ComponentDrill
T2C0.750
; #@! TA.AperFunction,Plated,PTH,ComponentDrill
T3C0.800
; #@! TA.AperFunction,Plated,PTH,ComponentDrill
T4C0.920
; #@! TA.AperFunction,Plated,PTH,ComponentDrill
T5C1.000
; #@! TA.AperFunction,Plated,PTH,ComponentDrill
T6C2.330
%
G90
G05
T1
X127.508Y-71.882
X127.644Y-83.43
X127.644Y-95.114
X127.644Y-102.48
X127.644Y-111.37
X127.644Y-117.72
X127.644Y-130.42
X129.921Y-107.95
X131.463Y-131.173
X132.207Y-113.411
X133.35Y-70.358
X133.713Y-131.209
X133.891Y-114.14
X135.128Y-109.347
X135.636Y-69.85
X136.398Y-115.188
X137.414Y-116.332
X137.668Y-108.458
X137.668Y-113.411
X138.684Y-69.342
X140.335Y-106.807
X141.224Y-73.406
X141.605Y-120.015
X141.623Y-132.697
X141.859Y-115.189
X143.129Y-114.3
X144.163Y-132.697
X144.653Y-115.697
X145.176Y-105.014
X145.288Y-106.553
X146.449Y-73.261
X146.703Y-131.173
X147.066Y-115.697
X147.716Y-105.014
X147.828Y-106.553
X148.971Y-110.236
X148.989Y-73.515
X149.098Y-112.268
X149.243Y-131.173
X149.987Y-107.442
X151.638Y-110.744
X151.783Y-115.933
X152.781Y-116.586
X153.289Y-102.235
X154.033Y-118.636
X154.051Y-107.569
X155.218Y-83.288
X155.218Y-94.718
X155.218Y-102.338
X155.321Y-123.825
X156.573Y-116.731
X156.845Y-106.934
X157.353Y-75.692
X157.988Y-114.3
X159.131Y-114.3
X160.02Y-77.216
X160.274Y-107.569
X160.401Y-114.554
X161.29Y-77.216
X162.448Y-107.046
X163.512Y-105.855
X164.338Y-114.554
X164.846Y-88.9
X165.1Y-99.822
X165.481Y-122.047
X165.735Y-113.411
X166.113Y-105.921
X166.751Y-107.696
X167.513Y-97.155
X168.148Y-113.411
X168.275Y-122.047
X168.943Y-73.373
X169.418Y-114.935
X169.799Y-106.934
X171.196Y-84.836
X172.593Y-85.725
X172.593Y-123.825
X172.72Y-131.064
X173.101Y-125.603
X173.228Y-109.982
X173.736Y-131.191
X174.023Y-76.167
X174.879Y-110.617
X175.148Y-114.666
X176.403Y-113.665
X176.53Y-75.692
X178.813Y-111.255
X179.832Y-101.981
X180.594Y-80.772
X180.594Y-82.042
X180.975Y-79.248
X181.483Y-105.614
X182.499Y-105.029
X182.499Y-133.858
X182.626Y-81.28
X182.74Y-112.636
X183.134Y-135.89
X183.261Y-131.826
X184.404Y-131.953
X184.658Y-83.312
X185.048Y-94.86
X185.048Y-101.972
X186.055Y-74.295
X186.309Y-113.411
X186.69Y-97.79
X186.817Y-103.124
X187.071Y-89.535
X187.1Y-107.794
X188.468Y-117.348
X188.595Y-118.745
X188.595Y-120.015
X189.484Y-114.3
X189.992Y-105.029
X190.627Y-88.265
X193.167Y-116.205
X193.929Y-98.298
X195.58Y-73.914
X195.58Y-77.47
X197.739Y-74.422
X200.66Y-85.217
X201.93Y-112.903
X203.2Y-74.422
X203.2Y-76.962
X205.74Y-74.676
X205.74Y-76.708
X208.28Y-85.725
X209.695Y-84.31
X210.815Y-118.369
X211.963Y-111.252
X213.13Y-84.304
X213.13Y-105.894
X216.662Y-96.393
X216.789Y-90.932
X218.21Y-121.642
X220.881Y-116.685
X221.615Y-117.475
X222.734Y-105.894
X226.822Y-95.631
X241.554Y-86.614
T2
X236.982Y-132.948
X238.252Y-132.948
X239.522Y-132.948
T3
X129.144Y-74.452
X129.144Y-76.952
X129.159Y-97.302
X129.159Y-99.802
X129.174Y-85.822
X129.174Y-88.322
X129.413Y-117.876
X129.413Y-120.376
X129.413Y-136.418
X129.413Y-138.918
X132.334Y-71.882
X132.334Y-79.502
X132.334Y-94.712
X132.334Y-102.332
X132.364Y-83.252
X132.364Y-90.872
X132.588Y-111.511
X132.588Y-126.751
X132.588Y-130.053
X132.588Y-145.293
X134.874Y-71.882
X134.874Y-79.502
X134.874Y-94.712
X134.874Y-102.332
X134.904Y-83.252
X134.904Y-90.872
X135.128Y-111.511
X135.128Y-126.751
X135.128Y-130.053
X135.128Y-145.293
X137.414Y-71.882
X137.414Y-79.502
X137.414Y-94.712
X137.414Y-102.332
X137.444Y-83.252
X137.444Y-90.872
X137.668Y-111.511
X137.668Y-126.751
X137.668Y-130.053
X137.668Y-145.293
X139.954Y-71.882
X139.954Y-79.502
X139.954Y-94.712
X139.954Y-102.332
X139.984Y-83.252
X139.984Y-90.872
X140.208Y-111.511
X140.208Y-126.751
X140.208Y-130.053
X140.208Y-145.293
X142.494Y-71.882
X142.494Y-79.502
X142.494Y-94.712
X142.494Y-102.332
X142.524Y-83.252
X142.524Y-90.872
X142.748Y-111.511
X142.748Y-126.751
X142.748Y-130.053
X142.748Y-145.293
X145.034Y-71.882
X145.034Y-79.502
X145.034Y-94.712
X145.034Y-102.332
X145.064Y-83.252
X145.064Y-90.872
X145.288Y-111.511
X145.288Y-126.751
X145.288Y-130.053
X145.288Y-145.293
X147.574Y-71.882
X147.574Y-79.502
X147.574Y-94.712
X147.574Y-102.332
X147.604Y-83.252
X147.604Y-90.872
X147.828Y-111.511
X147.828Y-126.751
X147.828Y-130.053
X147.828Y-145.293
X150.114Y-71.882
X150.114Y-79.502
X150.114Y-94.712
X150.114Y-102.332
X150.144Y-83.252
X150.144Y-90.872
X150.368Y-111.511
X150.368Y-126.751
X150.368Y-130.053
X150.368Y-145.293
X152.908Y-111.511
X152.908Y-126.751
X152.908Y-130.053
X152.908Y-145.293
X154.233Y-71.882
X155.448Y-111.511
X155.448Y-126.751
X155.448Y-130.053
X155.448Y-145.293
X156.718Y-85.852
X156.718Y-88.352
X156.718Y-97.282
X156.718Y-99.782
X156.733Y-71.882
X157.988Y-111.511
X157.988Y-126.751
X157.988Y-130.053
X157.988Y-145.293
X159.908Y-71.852
X159.908Y-79.472
X159.908Y-83.282
X159.908Y-90.902
X159.908Y-94.712
X159.908Y-102.332
X160.528Y-111.511
X160.528Y-126.751
X160.528Y-130.053
X160.528Y-145.293
X162.448Y-71.852
X162.448Y-79.472
X162.448Y-83.282
X162.448Y-90.902
X162.448Y-94.712
X162.448Y-102.332
X163.068Y-111.511
X163.068Y-126.751
X163.068Y-130.053
X163.068Y-145.293
X164.988Y-71.852
X164.988Y-79.472
X164.988Y-83.282
X164.988Y-90.902
X164.988Y-94.712
X164.988Y-102.332
X165.608Y-111.511
X165.608Y-126.751
X165.608Y-130.053
X165.608Y-145.293
X167.528Y-71.852
X167.528Y-79.472
X167.528Y-83.282
X167.528Y-90.902
X167.528Y-94.712
X167.528Y-102.332
X168.148Y-111.511
X168.148Y-126.751
X168.148Y-130.053
X168.148Y-145.293
X170.068Y-71.852
X170.068Y-79.472
X170.068Y-83.282
X170.068Y-90.902
X170.068Y-94.712
X170.068Y-102.332
X170.688Y-111.511
X170.688Y-126.751
X170.688Y-130.053
X170.688Y-145.293
X172.608Y-71.852
X172.608Y-79.472
X172.608Y-83.282
X172.608Y-90.902
X172.608Y-94.712
X172.608Y-102.332
X175.148Y-71.852
X175.148Y-79.472
X175.148Y-83.282
X175.148Y-90.902
X175.148Y-94.712
X175.148Y-102.332
X177.688Y-71.852
X177.688Y-79.472
X177.688Y-83.282
X177.688Y-90.902
X177.688Y-94.712
X177.688Y-102.332
X182.646Y-71.882
X185.146Y-71.882
X187.198Y-83.312
X187.198Y-85.812
X187.96Y-71.882
X187.96Y-79.502
X189.865Y-94.869
X189.865Y-97.369
X190.5Y-71.882
X190.5Y-79.502
X190.5Y-83.312
X190.5Y-90.932
X193.04Y-71.882
X193.04Y-79.502
X193.04Y-83.312
X193.04Y-90.932
X193.04Y-94.869
X193.04Y-102.489
X194.818Y-107.97
X194.818Y-110.47
X195.58Y-71.882
X195.58Y-79.502
X195.58Y-83.312
X195.58Y-90.932
X195.58Y-94.869
X195.58Y-102.489
X198.115Y-107.94
X198.115Y-115.56
X198.12Y-71.882
X198.12Y-79.502
X198.12Y-83.312
X198.12Y-90.932
X198.12Y-94.869
X198.12Y-102.489
X200.655Y-107.94
X200.655Y-115.56
X200.66Y-71.882
X200.66Y-79.502
X200.66Y-83.312
X200.66Y-90.932
X200.66Y-94.869
X200.66Y-102.489
X203.195Y-107.94
X203.195Y-115.56
X203.2Y-71.882
X203.2Y-79.502
X203.2Y-83.312
X203.2Y-90.932
X203.2Y-94.869
X203.2Y-102.489
X205.735Y-107.94
X205.735Y-115.56
X205.74Y-71.882
X205.74Y-79.502
X205.74Y-83.312
X205.74Y-90.932
X205.74Y-94.869
X205.74Y-102.489
X208.275Y-107.94
X208.275Y-115.56
X208.28Y-71.882
X208.28Y-79.502
X208.28Y-83.312
X208.28Y-90.932
X208.28Y-94.869
X208.28Y-102.489
X210.815Y-107.94
X210.815Y-115.56
X210.82Y-71.882
X210.82Y-79.502
X213.355Y-107.94
X213.355Y-115.56
X213.566Y-126.238
X214.63Y-79.395
X214.63Y-81.895
X216.066Y-126.238
X217.81Y-76.825
X217.81Y-84.445
X219.71Y-110.51
X219.71Y-113.01
X220.35Y-76.825
X220.35Y-84.445
X222.25Y-121.95
X222.25Y-124.45
X222.885Y-102.87
X222.885Y-107.94
X222.885Y-115.56
X222.89Y-76.825
X222.89Y-84.445
X225.425Y-102.87
X225.425Y-107.94
X225.425Y-115.56
X225.425Y-119.38
X225.425Y-127.0
X225.43Y-76.825
X225.43Y-84.445
X225.552Y-91.694
X225.552Y-99.314
X227.965Y-102.87
X227.965Y-107.94
X227.965Y-115.56
X227.965Y-119.38
X227.965Y-127.0
X227.97Y-76.825
X227.97Y-84.445
X228.092Y-91.694
X228.092Y-99.314
X230.505Y-102.87
X230.505Y-107.94
X230.505Y-115.56
X230.505Y-119.38
X230.505Y-127.0
X230.51Y-76.825
X230.51Y-84.445
X230.632Y-91.694
X230.632Y-99.314
X233.045Y-102.87
X233.045Y-107.94
X233.045Y-115.56
X233.045Y-119.38
X233.045Y-127.0
X233.05Y-76.825
X233.05Y-84.445
X233.172Y-91.694
X233.172Y-99.314
X235.585Y-107.94
X235.585Y-115.56
X235.585Y-119.38
X235.585Y-127.0
X235.59Y-76.825
X235.59Y-84.445
X238.125Y-107.94
X238.125Y-115.56
X238.125Y-119.38
X238.125Y-127.0
X238.13Y-76.825
X238.13Y-84.445
X240.665Y-107.94
X240.665Y-115.56
X240.665Y-119.38
X240.665Y-127.0
X240.67Y-76.825
X240.67Y-84.445
T4
X216.682Y-132.106
X216.682Y-134.106
X219.182Y-132.106
X219.182Y-134.106
T5
X245.745Y-76.835
X245.745Y-79.375
X245.745Y-81.915
X245.745Y-84.455
X245.745Y-86.995
X245.745Y-89.535
X245.745Y-92.075
X245.745Y-94.615
X245.745Y-97.155
X245.745Y-99.695
X245.745Y-102.235
X245.745Y-104.775
X245.745Y-107.315
X245.745Y-109.855
X245.745Y-112.395
X245.745Y-114.935
X245.745Y-117.475
X245.745Y-120.015
X245.745Y-122.555
X245.745Y-125.095
X245.745Y-127.635
X245.745Y-130.175
X245.745Y-132.715
X245.745Y-135.255
X245.745Y-137.795
X248.285Y-76.835
X248.285Y-79.375
X248.285Y-81.915
X248.285Y-84.455
X248.285Y-86.995
X248.285Y-89.535
X248.285Y-92.075
X248.285Y-94.615
X248.285Y-97.155
X248.285Y-99.695
X248.285Y-102.235
X248.285Y-104.775
X248.285Y-107.315
X248.285Y-109.855
X248.285Y-112.395
X248.285Y-114.935
X248.285Y-117.475
X248.285Y-120.015
X248.285Y-122.555
X248.285Y-125.095
X248.285Y-127.635
X248.285Y-130.175
X248.285Y-132.715
X248.285Y-135.255
X248.285Y-137.795
T6
X211.912Y-136.816
X223.952Y-136.816
T5
X201.9Y-133.35G85X204.5Y-133.35
G05
X202.1Y-139.65G85X204.3Y-139.65
G05
X208.0Y-135.15G85X208.0Y-137.35
G05
T0
M30
